{"glyphs":{":":{"x_min":0,"x_max":215,"ha":215,"o":"m 70 425 l 70 500 l 145 500 l 145 425 z m 70 0 l 70 75 l 145 75 l 145 0 z"},"$":{"x_min":0,"x_max":519,"ha":519,"o":"m 240 -120 l 240 -10 q 205 -9 174 4 q 143 18 120 41 q 97 64 83 95 q 70 126 70 162 l 70 190 l 133 200 l 133 162 q 133 139 141 119 q 149 99 164 84 q 179 69 198 60 q 218 51 240 50 l 240 334 q 208 346 177 360 q 147 374 123 395 q 99 417 84 448 q 70 479 70 525 l 70 538 q 70 573 83 604 q 97 635 120 659 q 143 682 174 696 q 205 709 240 710 l 240 800 l 290 800 l 290 710 q 325 709 355 696 q 386 682 409 658 q 432 635 446 604 q 459 573 459 538 l 459 520 l 396 510 l 396 538 q 396 561 388 581 q 379 601 365 615 q 351 630 332 640 q 312 649 290 650 l 290 379 q 322 367 353 352 q 384 337 409 315 q 434 293 449 261 q 464 229 464 183 l 464 162 q 464 126 450 95 q 437 64 414 41 q 390 17 359 4 q 328 -10 292 -10 l 290 -10 l 290 -120 z m 401 183 q 401 211 392 232 q 383 252 368 268 q 354 283 333 294 q 313 306 290 315 l 290 50 q 313 50 333 59 q 354 67 368 83 q 383 98 392 118 q 401 139 401 162 l 401 183 z m 133 525 q 133 499 141 480 q 149 460 164 446 q 179 431 198 420 q 218 409 240 399 l 240 650 q 218 649 198 640 q 179 630 164 615 q 149 601 141 581 q 133 561 133 538 l 133 525 z"},"?":{"x_min":0,"x_max":464,"ha":464,"o":"m 162 0 l 162 75 l 237 75 l 237 0 z m 231 212 l 168 212 l 168 231 q 168 263 176 287 q 184 311 197 329 q 209 347 226 361 q 242 375 260 388 q 277 401 293 415 q 310 428 323 444 q 335 460 343 480 q 351 501 351 529 l 351 538 q 351 562 342 582 q 333 602 318 617 q 303 632 282 641 q 262 650 239 650 l 225 650 q 202 650 181 641 q 161 632 146 617 q 130 602 122 582 q 113 562 113 538 l 113 510 l 50 520 l 50 538 q 50 574 63 605 q 77 636 100 660 q 124 683 155 697 q 187 710 222 710 l 242 710 q 278 710 309 697 q 340 683 364 660 q 387 636 401 605 q 414 574 414 538 l 414 529 q 414 495 406 470 q 398 444 385 425 q 373 405 356 390 q 340 375 323 362 q 305 349 289 336 q 272 323 260 308 q 247 293 239 274 q 231 256 231 231 z"},"<":{"x_min":0,"x_max":610,"ha":610,"o":"m 550 609 l 550 540 l 121 350 l 550 161 l 550 92 l 50 315 l 50 386 z"},"'":{"x_min":0,"x_max":195,"ha":195,"o":"m 95 485 l 70 485 l 70 700 l 145 700 z"},"=":{"x_min":0,"x_max":660,"ha":660,"o":"m 580 475 l 580 412 l 80 412 l 80 475 z m 580 289 l 580 226 l 80 226 l 80 289 z"},"a":{"x_min":0,"x_max":454,"ha":454,"o":"m 374 0 l 341 50 q 320 23 290 7 q 259 -10 222 -10 l 207 -10 q 177 -10 150 2 q 123 13 103 33 q 83 53 72 80 q 60 107 60 137 l 60 142 q 60 172 72 199 q 83 226 103 246 q 123 266 150 278 q 177 289 207 289 l 334 289 l 334 366 q 334 384 327 400 q 320 416 309 428 q 297 439 281 446 q 265 453 247 453 l 212 453 q 194 453 178 446 q 162 439 150 428 q 139 416 132 400 q 125 384 125 366 l 125 348 l 65 358 l 65 363 q 65 393 76 420 q 88 447 108 467 q 128 487 155 498 q 182 510 212 510 l 247 510 q 277 510 304 498 q 331 487 351 467 q 371 447 383 420 q 394 393 394 363 l 394 0 z m 334 242 l 207 242 q 189 242 173 235 q 157 229 146 217 q 134 205 127 189 q 120 173 120 155 l 120 134 q 120 116 127 100 q 134 84 146 72 q 157 61 173 54 q 189 47 207 47 l 247 47 q 265 47 281 54 q 297 61 309 72 q 320 84 327 100 q 334 116 334 134 z"},"L":{"x_min":0,"x_max":421,"ha":421,"o":"m 70 0 l 70 700 l 133 700 l 133 60 l 401 60 l 401 0 z"},"3":{"x_min":0,"x_max":514,"ha":514,"o":"m 444 162 q 444 126 430 95 q 417 64 394 41 q 370 17 339 4 q 308 -10 272 -10 l 242 -10 q 207 -10 175 4 q 144 17 120 41 q 97 64 83 95 q 70 126 70 162 l 70 180 l 133 190 l 133 162 q 133 139 142 118 q 150 98 166 83 q 181 67 201 59 q 222 50 245 50 l 269 50 q 292 50 313 59 q 333 67 348 83 q 363 98 372 118 q 381 139 381 162 l 381 220 q 381 244 372 264 q 363 284 348 299 q 333 314 313 323 q 292 332 269 332 l 222 332 l 222 392 l 269 392 q 292 392 313 401 q 333 410 348 425 q 363 440 372 460 q 381 480 381 504 l 381 538 q 381 562 372 582 q 363 602 348 617 q 333 632 313 641 q 292 650 269 650 l 245 650 q 222 650 201 641 q 181 632 166 617 q 150 602 142 582 q 133 562 133 538 l 133 510 l 70 520 l 70 538 q 70 574 83 605 q 97 636 120 660 q 144 683 175 697 q 207 710 242 710 l 272 710 q 308 710 339 697 q 370 683 394 660 q 417 636 430 605 q 444 574 444 538 l 444 514 q 444 489 437 467 q 431 444 419 424 q 407 405 390 389 q 374 373 353 362 q 374 351 390 335 q 407 319 419 300 q 431 280 437 258 q 444 235 444 210 l 444 162 z"},";":{"x_min":0,"x_max":215,"ha":215,"o":"m 70 425 l 70 500 l 145 500 l 145 425 z m 95 -140 l 70 -140 l 70 75 l 145 75 z"},"J":{"x_min":0,"x_max":454,"ha":454,"o":"m 394 162 q 394 126 381 95 q 367 64 344 41 q 320 17 289 4 q 258 -10 222 -10 l 202 -10 q 167 -10 135 4 q 104 17 80 41 q 57 64 43 95 q 30 126 30 162 l 30 190 l 93 200 l 93 162 q 93 139 102 118 q 110 98 126 83 q 141 67 161 59 q 182 50 205 50 l 219 50 q 242 50 263 59 q 283 67 298 83 q 313 98 322 118 q 331 139 331 162 l 331 700 l 394 700 l 394 162 z"},"V":{"x_min":0,"x_max":464,"ha":464,"o":"m 230 154 l 232 128 l 234 154 l 389 700 l 454 700 l 248 0 l 215 0 l 10 700 l 75 700 z"},"\"":{"x_min":0,"x_max":315,"ha":315,"o":"m 110 485 l 85 485 l 60 700 l 135 700 z m 230 485 l 205 485 l 180 700 l 255 700 z"},"7":{"x_min":0,"x_max":514,"ha":514,"o":"m 190 0 l 124 0 l 386 640 l 143 640 l 143 547 l 80 547 l 80 700 l 464 700 l 464 670 z"},"S":{"x_min":0,"x_max":519,"ha":519,"o":"m 464 162 q 464 126 449 95 q 435 64 411 41 q 387 17 355 4 q 323 -10 287 -10 l 237 -10 q 201 -10 169 4 q 137 17 113 41 q 89 64 74 95 q 60 126 60 162 l 60 190 l 123 200 l 123 162 q 123 139 133 118 q 142 98 158 83 q 174 67 196 59 q 217 50 240 50 l 284 50 q 308 50 329 59 q 350 67 366 83 q 382 98 391 118 q 401 139 401 162 l 401 183 q 401 219 387 243 q 373 267 349 284 q 326 301 296 312 q 267 324 235 336 q 204 348 175 362 q 145 376 122 397 q 98 418 84 449 q 70 480 70 525 l 70 538 q 70 574 83 605 q 97 636 120 660 q 144 683 175 697 q 207 710 242 710 l 287 710 q 323 710 354 697 q 385 683 409 660 q 432 636 446 605 q 459 574 459 538 l 459 520 l 396 510 l 396 538 q 396 562 387 582 q 378 602 363 617 q 348 632 328 641 q 308 650 284 650 l 245 650 q 222 650 201 641 q 181 632 166 617 q 150 602 142 582 q 133 562 133 538 l 133 525 q 133 491 147 468 q 161 445 185 429 q 208 413 238 401 q 267 389 298 376 q 330 364 359 349 q 389 334 412 312 q 436 291 450 259 q 464 228 464 183 z"},"}":{"x_min":0,"x_max":380,"ha":380,"o":"m 217 -28 q 217 -65 204 -97 q 191 -128 168 -151 q 145 -174 113 -187 q 82 -200 45 -200 l 40 -200 l 40 -146 l 45 -146 q 69 -146 90 -138 q 110 -130 125 -115 q 141 -101 149 -80 q 157 -59 157 -34 l 157 147 q 157 194 177 232 q 198 270 233 292 q 198 314 177 352 q 157 390 157 437 l 157 618 q 157 643 149 664 q 141 685 125 699 q 110 714 90 722 q 69 730 45 730 l 40 730 l 40 784 l 45 784 q 82 784 113 771 q 145 758 168 735 q 191 712 204 681 q 217 649 217 612 l 217 431 q 217 406 225 385 q 233 364 249 350 q 264 335 284 327 q 305 319 329 319 l 340 319 l 340 265 l 324 265 q 301 265 281 256 q 261 248 247 233 q 232 218 225 198 q 217 177 217 153 z"},"Z":{"x_min":0,"x_max":474,"ha":474,"o":"m 40 0 l 40 30 l 352 640 l 50 640 l 50 700 l 434 700 l 434 670 l 122 60 l 434 60 l 434 0 z"},"x":{"x_min":0,"x_max":424,"ha":424,"o":"m 319 0 l 212 192 l 105 0 l 40 0 l 180 250 l 40 500 l 105 500 l 212 308 l 319 500 l 384 500 l 244 250 l 384 0 z"},")":{"x_min":0,"x_max":334,"ha":334,"o":"m 274 292 q 274 211 258 141 q 243 70 215 9 q 187 -52 149 -104 q 110 -156 65 -200 l 30 -165 q 70 -124 104 -73 q 138 -23 162 35 q 187 93 200 157 q 214 222 214 292 q 214 362 200 427 q 187 491 162 549 q 138 607 104 657 q 70 708 30 749 l 65 784 q 110 740 149 688 q 187 636 215 575 q 243 514 258 444 q 274 374 274 292 z"},"&":{"x_min":0,"x_max":621,"ha":621,"o":"m 533 -10 q 491 -10 459 8 q 428 26 409 57 q 385 26 349 8 q 313 -10 272 -10 l 242 -10 q 207 -10 175 4 q 144 17 120 41 q 97 64 83 95 q 70 126 70 162 l 70 200 q 70 225 76 248 q 83 271 95 290 q 107 310 124 325 q 141 341 161 352 q 141 363 124 379 q 107 395 95 414 q 83 434 76 456 q 70 479 70 504 l 70 538 q 70 574 83 605 q 97 636 120 660 q 144 683 175 697 q 207 710 242 710 l 272 710 q 308 710 339 697 q 370 683 394 660 q 417 636 430 605 q 444 574 444 538 l 444 533 l 381 523 l 381 538 q 381 562 372 582 q 363 602 348 617 q 333 632 313 641 q 292 650 269 650 l 245 650 q 222 650 201 641 q 181 632 166 617 q 150 602 142 582 q 133 562 133 538 l 133 494 q 133 471 142 450 q 150 430 166 415 q 181 399 201 391 q 222 382 245 382 l 381 382 l 381 446 l 444 456 l 444 383 l 541 383 l 541 323 l 444 323 l 444 155 q 445 133 451 114 q 457 95 468 80 q 479 66 497 58 q 514 50 536 50 l 551 50 l 542 -10 z m 269 50 q 292 50 312 58 q 332 66 346 81 q 361 96 371 115 q 380 135 381 157 l 381 322 l 245 322 q 222 322 201 313 q 181 304 166 289 q 150 274 142 254 q 133 233 133 210 l 133 162 q 133 139 142 118 q 150 98 166 83 q 181 67 201 59 q 222 50 245 50 l 269 50 z"},"_":{"x_min":0,"x_max":548,"ha":548,"o":"m 549 -143 l 549 -200 l -1 -200 l -1 -143 z"},"v":{"x_min":0,"x_max":404,"ha":404,"o":"m 217 0 l 187 0 l 10 500 l 70 500 l 200 121 l 202 95 l 204 121 l 334 500 l 394 500 z"},"O":{"x_min":0,"x_max":534,"ha":534,"o":"m 464 162 q 464 126 450 95 q 437 64 414 41 q 390 17 359 4 q 328 -10 292 -10 l 242 -10 q 207 -10 175 4 q 144 17 120 41 q 97 64 83 95 q 70 126 70 162 l 70 538 q 70 574 83 605 q 97 636 120 660 q 144 683 175 697 q 207 710 242 710 l 292 710 q 328 710 359 697 q 390 683 414 660 q 437 636 450 605 q 464 574 464 538 l 464 162 z m 401 538 q 401 562 392 582 q 383 602 368 617 q 353 632 333 641 q 312 650 289 650 l 245 650 q 222 650 201 641 q 181 632 166 617 q 150 602 142 582 q 133 562 133 538 l 133 162 q 133 139 142 118 q 150 98 166 83 q 181 67 201 59 q 222 50 245 50 l 289 50 q 312 50 333 59 q 353 67 368 83 q 383 98 392 118 q 401 139 401 162 z"},"(":{"x_min":0,"x_max":334,"ha":334,"o":"m 60 292 q 60 374 76 444 q 91 514 119 575 q 147 636 185 688 q 224 740 269 784 l 304 749 q 264 708 230 657 q 196 607 172 549 q 147 491 134 427 q 120 362 120 292 q 120 222 134 157 q 147 93 172 35 q 196 -23 230 -73 q 264 -124 304 -165 l 269 -200 q 224 -156 185 -104 q 147 -52 119 9 q 91 70 76 141 q 60 211 60 292 z"},"C":{"x_min":0,"x_max":524,"ha":524,"o":"m 464 162 q 464 126 450 95 q 437 64 414 41 q 390 17 359 4 q 328 -10 292 -10 l 242 -10 q 207 -10 175 4 q 144 17 120 41 q 97 64 83 95 q 70 126 70 162 l 70 538 q 70 574 83 605 q 97 636 120 660 q 144 683 175 697 q 207 710 242 710 l 292 710 q 328 710 359 697 q 390 683 414 660 q 437 636 450 605 q 464 574 464 538 l 464 510 l 401 500 l 401 538 q 401 562 392 582 q 383 602 368 617 q 353 632 333 641 q 312 650 289 650 l 245 650 q 222 650 201 641 q 181 632 166 617 q 150 602 142 582 q 133 562 133 538 l 133 162 q 133 139 142 118 q 150 98 166 83 q 181 67 201 59 q 222 50 245 50 l 289 50 q 312 50 333 59 q 353 67 368 83 q 383 98 392 118 q 401 139 401 162 l 401 200 l 464 190 l 464 162 z"},"W":{"x_min":0,"x_max":753,"ha":753,"o":"m 548 0 l 515 0 l 379 527 l 377 554 l 374 527 l 239 0 l 206 0 l 20 700 l 83 700 l 220 168 l 222 142 l 224 168 l 359 700 l 394 700 l 529 168 l 531 142 l 533 168 l 670 700 l 733 700 z"},"A":{"x_min":0,"x_max":464,"ha":464,"o":"m 343 163 l 121 163 l 75 0 l 10 0 l 215 700 l 248 700 l 454 0 l 389 0 z m 138 223 l 326 223 l 234 546 l 232 572 l 230 546 z"},"f":{"x_min":0,"x_max":287,"ha":287,"o":"m 232 643 q 217 643 204 637 q 191 632 181 622 q 171 612 166 599 q 160 586 160 571 l 160 500 l 277 500 l 277 443 l 160 443 l 160 0 l 100 0 l 100 443 l 10 443 l 10 500 l 100 500 l 100 568 q 100 595 110 619 q 121 644 139 662 q 157 680 181 690 q 205 700 232 700 l 287 700 l 287 643 z"},"Q":{"x_min":0,"x_max":534,"ha":534,"o":"m 464 162 q 464 128 452 98 q 439 67 418 44 q 396 21 367 7 q 338 -7 305 -10 l 369 -154 l 306 -154 l 242 -10 q 207 -10 175 4 q 144 17 120 41 q 97 64 83 95 q 70 126 70 162 l 70 538 q 70 574 83 605 q 97 636 120 660 q 144 683 175 697 q 207 710 242 710 l 292 710 q 328 710 359 697 q 390 683 414 660 q 437 636 450 605 q 464 574 464 538 l 464 162 z m 401 538 q 401 562 392 582 q 383 602 368 617 q 353 632 333 641 q 312 650 289 650 l 245 650 q 222 650 201 641 q 181 632 166 617 q 150 602 142 582 q 133 562 133 538 l 133 162 q 133 139 142 118 q 150 98 166 83 q 181 67 201 59 q 222 50 245 50 l 289 50 q 312 50 333 59 q 353 67 368 83 q 383 98 392 118 q 401 139 401 162 z"},"w":{"x_min":0,"x_max":658,"ha":658,"o":"m 481 0 l 448 0 l 331 377 l 329 403 l 327 377 l 210 0 l 177 0 l 10 500 l 71 500 l 190 122 l 192 96 l 194 122 l 311 500 l 347 500 l 464 122 l 466 96 l 468 122 l 587 500 l 648 500 z"},"-":{"x_min":0,"x_max":287,"ha":287,"o":"m 50 306 l 50 363 l 237 363 l 237 306 z"},"E":{"x_min":0,"x_max":514,"ha":514,"o":"m 80 0 l 80 700 l 474 700 l 474 640 l 143 640 l 143 380 l 411 380 l 411 320 l 143 320 l 143 60 l 474 60 l 474 0 z"},"s":{"x_min":0,"x_max":459,"ha":459,"o":"m 404 127 q 404 97 392 72 q 379 46 358 28 q 337 10 310 0 q 282 -10 252 -10 l 212 -10 q 182 -10 154 2 q 126 13 106 33 q 85 53 73 80 q 60 107 60 137 l 60 157 l 120 167 l 120 134 q 120 116 128 100 q 135 84 148 72 q 161 61 177 54 q 194 47 212 47 l 252 47 q 270 47 287 52 q 303 58 316 68 q 329 78 337 92 q 344 106 344 124 q 344 151 333 168 q 321 185 302 197 q 282 208 258 216 q 233 223 207 231 q 181 238 156 248 q 132 258 113 274 q 93 290 82 313 q 70 337 70 373 q 70 403 82 428 q 93 454 113 472 q 133 490 160 500 q 187 510 217 510 l 252 510 q 282 510 309 498 q 336 487 356 467 q 376 447 387 420 q 399 393 399 363 l 399 361 l 339 351 l 339 366 q 339 384 332 400 q 325 416 313 428 q 302 439 286 446 q 270 453 252 453 l 217 453 q 199 453 183 448 q 167 442 155 432 q 144 422 137 408 q 130 394 130 376 q 130 350 142 334 q 153 317 173 306 q 192 295 217 287 q 241 280 267 272 q 292 264 317 253 q 342 243 361 227 q 380 211 392 187 q 404 163 404 127 z"},">":{"x_min":0,"x_max":610,"ha":610,"o":"m 488 350 l 60 540 l 60 609 l 560 386 l 560 315 l 60 92 l 60 161 z"},"l":{"x_min":0,"x_max":220,"ha":220,"o":"m 80 0 l 80 700 l 140 700 l 140 0 z"},"8":{"x_min":0,"x_max":514,"ha":514,"o":"m 444 162 q 444 126 430 95 q 417 64 394 41 q 370 17 339 4 q 308 -10 272 -10 l 242 -10 q 207 -10 175 4 q 144 17 120 41 q 97 64 83 95 q 70 126 70 162 l 70 220 q 70 265 91 302 q 111 338 145 362 q 111 385 91 422 q 70 459 70 504 l 70 538 q 70 574 83 605 q 97 636 120 660 q 144 683 175 697 q 207 710 242 710 l 272 710 q 308 710 339 697 q 370 683 394 660 q 417 636 430 605 q 444 574 444 538 l 444 504 q 444 459 423 422 q 403 385 369 362 q 403 338 423 302 q 444 265 444 220 l 444 162 z m 381 538 q 381 562 372 582 q 363 602 348 617 q 333 632 313 641 q 292 650 269 650 l 245 650 q 222 650 201 641 q 181 632 166 617 q 150 602 142 582 q 133 562 133 538 l 133 504 q 133 480 142 460 q 150 440 166 425 q 181 410 201 401 q 222 392 245 392 l 269 392 q 292 392 313 401 q 333 410 348 425 q 363 440 372 460 q 381 480 381 504 z m 381 220 q 381 244 372 264 q 363 284 348 299 q 333 314 313 323 q 292 332 269 332 l 245 332 q 222 332 201 323 q 181 314 166 299 q 150 284 142 264 q 133 244 133 220 l 133 162 q 133 139 142 118 q 150 98 166 83 q 181 67 201 59 q 222 50 245 50 l 269 50 q 292 50 313 59 q 333 67 348 83 q 363 98 372 118 q 381 139 381 162 z"},"\\":{"x_min":0,"x_max":382,"ha":382,"o":"m 299 -60 l 20 760 l 83 760 l 362 -60 z"},"e":{"x_min":0,"x_max":454,"ha":454,"o":"m 394 137 q 394 107 383 80 q 371 53 351 33 q 331 13 304 2 q 277 -10 247 -10 l 207 -10 q 177 -10 150 2 q 123 13 103 33 q 83 53 72 80 q 60 107 60 137 l 60 363 q 60 393 72 420 q 83 447 103 467 q 123 487 150 498 q 177 510 207 510 l 247 510 q 277 510 304 498 q 331 487 351 467 q 371 447 383 420 q 394 393 394 363 l 394 245 l 120 245 l 120 134 q 120 116 127 100 q 134 84 146 72 q 157 61 173 54 q 189 47 207 47 l 247 47 q 265 47 281 54 q 297 61 309 72 q 320 84 327 100 q 334 116 334 134 l 334 167 l 394 157 l 394 137 z m 334 366 q 334 384 327 400 q 320 416 309 428 q 297 439 281 446 q 265 453 247 453 l 207 453 q 189 453 173 446 q 157 439 146 428 q 134 416 127 400 q 120 384 120 366 l 120 292 l 334 292 z"},"b":{"x_min":0,"x_max":454,"ha":454,"o":"m 394 137 q 394 107 383 80 q 371 53 351 33 q 331 13 304 2 q 277 -10 247 -10 l 207 -10 q 177 -10 150 2 q 123 13 103 33 q 83 53 72 80 q 60 107 60 137 l 60 700 l 120 700 l 120 458 q 141 482 169 496 q 198 510 232 510 l 247 510 q 277 510 304 498 q 331 487 351 467 q 371 447 383 420 q 394 393 394 363 l 394 137 z m 334 366 q 334 384 327 400 q 320 416 309 428 q 297 439 281 446 q 265 453 247 453 l 207 453 q 189 453 173 446 q 157 439 146 428 q 134 416 127 400 q 120 384 120 366 l 120 134 q 120 116 127 100 q 134 84 146 72 q 157 61 173 54 q 189 47 207 47 l 247 47 q 265 47 281 54 q 297 61 309 72 q 320 84 327 100 q 334 116 334 134 z"},"%":{"x_min":0,"x_max":675,"ha":675,"o":"m 258 447 q 258 429 251 413 q 245 397 233 386 q 221 374 205 367 q 189 360 171 360 l 157 360 q 139 360 123 367 q 107 374 95 386 q 83 397 77 413 q 70 429 70 447 l 70 617 q 70 635 77 651 q 83 667 95 678 q 107 690 123 697 q 139 704 157 704 l 171 704 q 189 704 205 697 q 221 690 233 678 q 245 667 251 651 q 258 635 258 617 l 258 447 z m 210 617 q 210 625 207 633 q 204 640 198 646 q 192 651 185 654 q 178 657 169 657 l 159 657 q 150 657 143 654 q 136 651 130 646 q 125 640 121 633 q 118 625 118 617 l 118 447 q 118 430 130 419 q 142 407 159 407 l 169 407 q 186 407 198 419 q 210 430 210 447 z m 605 83 q 605 65 598 50 q 592 34 580 22 q 568 10 552 3 q 537 -4 518 -4 l 504 -4 q 486 -4 470 3 q 454 10 442 22 q 431 34 424 50 q 417 65 417 83 l 417 253 q 417 271 424 286 q 431 302 442 314 q 454 326 470 333 q 486 340 504 340 l 518 340 q 537 340 552 333 q 568 326 580 314 q 592 302 598 286 q 605 271 605 253 l 605 83 z m 557 253 q 557 261 554 269 q 551 276 545 281 q 540 287 532 290 q 525 293 516 293 l 506 293 q 497 293 490 290 q 482 287 477 281 q 471 276 468 269 q 465 261 465 253 l 465 83 q 465 75 468 67 q 471 60 477 55 q 482 49 490 46 q 497 43 506 43 l 516 43 q 525 43 532 46 q 540 49 545 55 q 551 60 554 67 q 557 75 557 83 z m 110 0 l 509 700 l 565 700 l 166 0 z"},"m":{"x_min":0,"x_max":708,"ha":708,"o":"m 588 0 l 588 366 q 588 384 581 400 q 574 416 562 428 q 551 439 535 446 q 519 453 501 453 l 471 453 q 453 453 437 446 q 421 439 409 428 q 397 416 391 400 q 384 384 384 366 l 384 0 l 324 0 l 324 366 q 324 384 317 400 q 311 416 299 428 q 287 439 271 446 q 255 453 237 453 l 207 453 q 189 453 173 446 q 157 439 146 428 q 134 416 127 400 q 120 384 120 366 l 120 0 l 60 0 l 60 500 l 80 500 l 113 449 q 133 477 164 493 q 195 510 232 510 l 237 510 q 279 510 313 489 q 348 468 366 433 q 375 450 389 464 q 403 479 419 489 q 436 499 456 504 q 475 510 496 510 l 501 510 q 531 510 558 498 q 585 487 605 467 q 625 447 636 420 q 648 393 648 363 l 648 0 z"},"#":{"x_min":0,"x_max":640,"ha":640,"o":"m 80 522 l 195 522 l 210 700 l 269 700 l 254 522 l 416 522 l 431 700 l 490 700 l 475 522 l 580 522 l 580 472 l 470 472 l 450 228 l 560 228 l 560 178 l 445 178 l 430 0 l 371 0 l 386 178 l 224 178 l 209 0 l 150 0 l 165 178 l 60 178 l 60 228 l 170 228 l 190 472 l 80 472 z m 229 228 l 391 228 l 411 472 l 249 472 z"},",":{"x_min":0,"x_max":215,"ha":215,"o":"m 95 -140 l 70 -140 l 70 75 l 145 75 z"},"n":{"x_min":0,"x_max":454,"ha":454,"o":"m 334 0 l 334 366 q 334 384 327 400 q 320 416 309 428 q 297 439 281 446 q 265 453 247 453 l 207 453 q 189 453 173 446 q 157 439 146 428 q 134 416 127 400 q 120 384 120 366 l 120 0 l 60 0 l 60 500 l 80 500 l 113 449 q 133 477 164 493 q 195 510 232 510 l 247 510 q 277 510 304 498 q 331 487 351 467 q 371 447 383 420 q 394 393 394 363 l 394 0 z"},"h":{"x_min":0,"x_max":454,"ha":454,"o":"m 334 0 l 334 366 q 334 384 327 400 q 320 416 309 428 q 297 439 281 446 q 265 453 247 453 l 207 453 q 189 453 173 446 q 157 439 146 428 q 134 416 127 400 q 120 384 120 366 l 120 0 l 60 0 l 60 700 l 120 700 l 120 458 q 141 482 169 496 q 198 510 232 510 l 247 510 q 277 510 304 498 q 331 487 351 467 q 371 447 383 420 q 394 393 394 363 l 394 0 z"},"z":{"x_min":0,"x_max":414,"ha":414,"o":"m 40 0 l 40 27 l 292 443 l 50 443 l 50 500 l 374 500 l 374 473 l 122 57 l 374 57 l 374 0 z"},"B":{"x_min":0,"x_max":514,"ha":514,"o":"m 474 172 q 474 136 461 105 q 447 74 424 50 q 400 27 369 13 q 337 0 302 0 l 80 0 l 80 700 l 302 700 q 337 700 369 687 q 400 673 424 650 q 447 626 461 595 q 474 563 474 528 l 474 521 q 474 496 468 473 q 461 451 449 431 q 437 412 420 396 q 403 380 383 369 q 403 358 420 343 q 437 327 449 307 q 461 287 468 264 q 474 242 474 217 l 474 172 z m 411 227 q 411 250 402 271 q 394 291 378 306 q 363 321 343 330 q 322 339 299 339 l 143 339 l 143 60 l 299 60 q 322 60 343 69 q 363 78 378 93 q 394 108 402 128 q 411 148 411 172 z m 411 528 q 411 551 402 572 q 394 592 378 607 q 363 623 343 631 q 322 640 299 640 l 143 640 l 143 399 l 299 399 q 322 399 343 408 q 363 417 378 432 q 394 447 402 468 q 411 488 411 511 z"},"K":{"x_min":0,"x_max":520,"ha":520,"o":"m 422 0 l 158 350 l 422 700 l 500 700 l 231 350 l 500 0 z m 80 0 l 80 700 l 143 700 l 143 0 z"},"R":{"x_min":0,"x_max":522,"ha":522,"o":"m 409 0 l 219 299 l 133 299 l 133 0 l 70 0 l 70 700 l 292 700 q 328 700 359 687 q 390 673 414 650 q 437 626 450 595 q 464 563 464 528 l 464 471 q 464 436 450 404 q 437 373 414 349 q 390 326 359 312 q 328 299 292 299 l 482 0 z m 401 528 q 401 551 392 572 q 383 592 368 607 q 353 623 333 631 q 312 640 289 640 l 133 640 l 133 359 l 289 359 q 312 359 333 368 q 353 376 368 392 q 383 407 392 427 q 401 448 401 471 z"},"T":{"x_min":0,"x_max":437,"ha":437,"o":"m 250 640 l 250 0 l 187 0 l 187 640 l 20 640 l 20 700 l 417 700 l 417 640 z"},"P":{"x_min":0,"x_max":514,"ha":514,"o":"m 474 441 q 474 405 461 374 q 447 343 424 319 q 400 296 369 282 q 337 269 302 269 l 143 269 l 143 0 l 80 0 l 80 700 l 302 700 q 337 700 369 687 q 400 673 424 650 q 447 626 461 595 q 474 563 474 528 l 474 441 z m 411 528 q 411 551 402 572 q 394 592 378 607 q 363 623 343 631 q 322 640 299 640 l 143 640 l 143 329 l 299 329 q 322 329 343 338 q 363 347 378 362 q 394 377 402 397 q 411 417 411 441 z"},"|":{"x_min":0,"x_max":223,"ha":223,"o":"m 80 -200 l 80 784 l 143 784 l 143 -200 z"},"t":{"x_min":0,"x_max":347,"ha":347,"o":"m 242 0 q 215 0 191 10 q 167 21 149 39 q 131 57 120 81 q 110 104 110 132 l 110 443 l 20 443 l 20 500 l 110 500 l 110 620 l 170 630 l 170 500 l 297 500 l 297 443 l 170 443 l 170 129 q 170 114 176 101 q 181 88 191 78 q 201 68 214 63 q 227 57 242 57 l 297 57 l 297 0 z"},"M":{"x_min":0,"x_max":654,"ha":654,"o":"m 511 0 l 511 480 l 507 450 l 344 0 l 311 0 l 147 450 l 143 480 l 143 0 l 80 0 l 80 700 l 113 700 l 325 126 l 327 100 l 329 126 l 541 700 l 574 700 l 574 0 z"},"g":{"x_min":0,"x_max":454,"ha":454,"o":"m 399 -63 q 399 -93 387 -119 q 376 -144 356 -162 q 336 -180 309 -190 q 282 -200 252 -200 l 227 -200 q 197 -200 170 -190 q 143 -180 123 -162 q 103 -144 92 -119 q 80 -93 80 -63 l 80 -61 q 80 -32 91 -7 q 102 17 120 35 q 97 49 83 73 q 69 98 69 127 q 69 153 80 176 q 91 199 111 213 q 87 233 74 262 q 60 291 60 325 l 60 363 q 60 393 72 420 q 83 447 103 467 q 123 487 150 498 q 177 510 207 510 l 232 510 q 269 510 300 493 q 331 477 351 449 l 384 500 l 404 500 l 404 325 q 404 295 392 268 q 381 241 361 221 q 341 201 314 190 q 287 178 257 178 l 170 178 q 160 178 150 174 q 141 170 134 163 q 127 156 123 147 q 119 137 119 127 q 119 117 123 107 q 127 98 134 91 q 141 84 150 80 q 160 76 170 76 l 252 76 q 282 76 309 66 q 336 56 356 38 q 376 20 387 -5 q 399 -31 399 -61 l 399 -63 z m 344 366 q 344 384 337 400 q 331 416 319 428 q 307 439 291 446 q 275 453 257 453 l 207 453 q 189 453 173 446 q 157 439 146 428 q 134 416 127 400 q 120 384 120 366 l 120 322 q 120 304 127 288 q 134 272 146 260 q 157 249 173 242 q 189 235 207 235 l 257 235 q 275 235 291 242 q 307 249 319 260 q 331 272 337 288 q 344 304 344 322 z m 342 -58 q 342 -40 335 -26 q 328 -11 316 -1 q 305 8 289 14 q 273 19 255 19 l 224 19 q 206 19 190 14 q 174 8 163 -1 q 151 -11 144 -26 q 137 -40 137 -58 l 137 -66 q 137 -84 144 -98 q 151 -112 163 -122 q 174 -132 190 -138 q 206 -143 224 -143 l 255 -143 q 273 -143 289 -138 q 305 -132 316 -122 q 328 -112 335 -98 q 342 -84 342 -66 z"},"j":{"x_min":0,"x_max":220,"ha":220,"o":"m 75 620 l 75 700 l 145 700 l 145 620 z m 140 -53 q 140 -83 129 -110 q 117 -137 97 -157 q 77 -177 50 -188 q 23 -200 -7 -200 l -7 -143 q 11 -143 27 -136 q 43 -129 55 -118 q 66 -106 73 -90 q 80 -74 80 -56 l 80 500 l 140 500 l 140 -53 z"},"i":{"x_min":0,"x_max":220,"ha":220,"o":"m 75 620 l 75 700 l 145 700 l 145 620 z m 80 0 l 80 500 l 140 500 l 140 0 z"},"y":{"x_min":0,"x_max":394,"ha":394,"o":"m 141 -200 l 83 -200 l 172 43 l 10 500 l 70 500 l 200 121 l 202 95 l 204 121 l 334 500 l 394 500 z"},"@":{"x_min":0,"x_max":999,"ha":999,"o":"m 637 124 q 630 75 650 52 q 669 29 710 29 q 740 29 768 50 q 796 72 818 110 q 840 148 854 201 q 867 254 867 317 q 867 389 846 450 q 825 512 784 556 q 744 601 685 626 q 626 652 551 652 q 491 652 437 635 q 382 618 336 587 q 289 556 251 513 q 214 471 187 419 q 161 367 146 309 q 132 250 132 187 q 132 115 151 53 q 171 -9 209 -54 q 248 -100 305 -126 q 362 -152 437 -152 q 464 -152 490 -148 q 517 -145 540 -139 q 563 -133 583 -125 q 603 -117 617 -109 l 637 -155 q 614 -169 587 -179 q 561 -190 534 -197 q 507 -204 480 -207 q 454 -210 429 -210 q 343 -210 276 -180 q 209 -150 163 -98 q 118 -46 94 25 q 70 96 70 179 q 70 250 87 318 q 104 385 135 444 q 167 503 211 552 q 256 601 310 636 q 364 671 427 690 q 490 710 559 710 q 646 710 714 681 q 783 651 831 600 q 878 548 904 478 q 929 408 929 325 q 929 286 923 244 q 917 203 904 164 q 891 125 872 91 q 853 57 827 31 q 802 5 770 -10 q 737 -25 698 -25 q 671 -25 651 -19 q 631 -13 616 -3 q 602 7 591 21 q 581 35 573 51 q 548 23 515 7 q 482 -10 445 -10 l 430 -10 q 402 -10 379 0 q 356 10 339 27 q 322 43 313 66 q 303 89 303 116 q 303 122 303 127 q 303 132 304 137 l 335 363 q 339 393 355 420 q 370 447 393 467 q 416 487 445 498 q 473 510 503 510 l 518 510 q 555 510 583 493 q 612 477 628 449 l 669 500 l 689 500 z m 363 134 q 363 131 362 128 q 362 125 362 122 q 362 106 367 92 q 373 79 383 68 q 394 58 407 52 q 421 47 438 47 l 478 47 q 496 47 513 54 q 529 61 543 72 q 556 84 565 100 q 574 116 577 134 l 610 366 q 611 369 611 373 q 611 376 611 379 q 611 395 605 408 q 600 422 590 432 q 580 442 566 448 q 552 453 535 453 l 495 453 q 477 453 460 446 q 443 439 430 428 q 417 416 407 400 q 398 384 396 366 z"},".":{"x_min":0,"x_max":215,"ha":215,"o":"m 70 0 l 70 75 l 145 75 l 145 0 z"},"p":{"x_min":0,"x_max":454,"ha":454,"o":"m 394 137 q 394 107 383 80 q 371 53 351 33 q 331 13 304 2 q 277 -10 247 -10 l 232 -10 q 198 -10 169 4 q 141 18 120 42 l 120 -200 l 60 -200 l 60 500 l 80 500 l 113 449 q 133 477 164 493 q 195 510 232 510 l 247 510 q 277 510 304 498 q 331 487 351 467 q 371 447 383 420 q 394 393 394 363 l 394 137 z m 334 366 q 334 384 327 400 q 320 416 309 428 q 297 439 281 446 q 265 453 247 453 l 207 453 q 189 453 173 446 q 157 439 146 428 q 134 416 127 400 q 120 384 120 366 l 120 134 q 120 116 127 100 q 134 84 146 72 q 157 61 173 54 q 189 47 207 47 l 247 47 q 265 47 281 54 q 297 61 309 72 q 320 84 327 100 q 334 116 334 134 z"},"X":{"x_min":0,"x_max":484,"ha":484,"o":"m 386 0 l 242 291 l 98 0 l 30 0 l 208 360 l 40 700 l 108 700 l 242 429 l 376 700 l 444 700 l 276 360 l 454 0 z"},"*":{"x_min":0,"x_max":485,"ha":485,"o":"m 243 475 l 159 335 l 101 377 l 209 499 l 50 535 l 72 602 l 222 538 l 207 700 l 278 700 l 263 538 l 413 602 l 435 535 l 276 499 l 384 377 l 326 335 z"},"Y":{"x_min":0,"x_max":464,"ha":464,"o":"m 264 335 l 264 0 l 201 0 l 201 334 l 20 700 l 88 700 l 232 409 l 376 700 l 444 700 z"},"c":{"x_min":0,"x_max":454,"ha":454,"o":"m 394 137 q 394 107 383 80 q 371 53 351 33 q 331 13 304 2 q 277 -10 247 -10 l 207 -10 q 177 -10 150 2 q 123 13 103 33 q 83 53 72 80 q 60 107 60 137 l 60 363 q 60 393 72 420 q 83 447 103 467 q 123 487 150 498 q 177 510 207 510 l 247 510 q 277 510 304 498 q 331 487 351 467 q 371 447 383 420 q 394 393 394 363 l 394 343 l 334 333 l 334 366 q 334 384 327 400 q 320 416 309 428 q 297 439 281 446 q 265 453 247 453 l 207 453 q 189 453 173 446 q 157 439 146 428 q 134 416 127 400 q 120 384 120 366 l 120 134 q 120 116 127 100 q 134 84 146 72 q 157 61 173 54 q 189 47 207 47 l 247 47 q 265 47 281 54 q 297 61 309 72 q 320 84 327 100 q 334 116 334 134 l 334 167 l 394 157 l 394 137 z"},"!":{"x_min":0,"x_max":209,"ha":209,"o":"m 122 212 l 87 212 l 60 700 l 149 700 z m 67 0 l 67 75 l 142 75 l 142 0 z"},"/":{"x_min":0,"x_max":382,"ha":382,"o":"m 20 -60 l 299 760 l 362 760 l 83 -60 z"},"[":{"x_min":0,"x_max":309,"ha":309,"o":"m 259 -200 l 80 -200 l 80 784 l 259 784 l 259 730 l 140 730 l 140 -146 l 259 -146 z"},"6":{"x_min":0,"x_max":514,"ha":514,"o":"m 454 162 q 454 126 441 95 q 427 64 404 41 q 380 17 349 4 q 318 -10 282 -10 l 252 -10 q 216 -10 185 4 q 154 17 130 41 q 107 64 94 95 q 80 126 80 162 l 80 538 q 80 574 94 605 q 107 636 130 660 q 154 683 185 697 q 216 710 252 710 l 282 710 q 318 710 349 697 q 380 683 404 660 q 427 636 441 605 q 454 574 454 538 l 454 520 l 391 510 l 391 538 q 391 562 382 582 q 374 602 358 617 q 343 632 323 641 q 302 650 279 650 l 255 650 q 231 650 211 641 q 191 632 176 617 q 161 602 152 582 q 143 562 143 538 l 143 364 q 167 390 200 406 q 234 422 272 422 l 282 422 q 318 422 349 408 q 380 395 404 372 q 427 348 441 317 q 454 286 454 250 l 454 162 z m 391 250 q 391 273 382 294 q 374 314 358 329 q 343 344 323 353 q 302 362 279 362 l 255 362 q 231 362 211 353 q 191 344 176 329 q 161 314 152 294 q 143 273 143 250 l 143 162 q 143 139 152 118 q 161 98 176 83 q 191 67 211 59 q 231 50 255 50 l 279 50 q 302 50 323 59 q 343 67 358 83 q 374 98 382 118 q 391 139 391 162 z"},"r":{"x_min":0,"x_max":287,"ha":287,"o":"m 207 443 q 189 443 173 436 q 157 429 146 417 q 134 406 127 390 q 120 374 120 356 l 120 0 l 60 0 l 60 500 l 80 500 l 113 449 q 133 477 164 493 q 195 510 232 510 l 267 510 l 267 443 z"},"2":{"x_min":0,"x_max":494,"ha":494,"o":"m 230 650 q 207 650 186 641 q 166 632 151 617 q 136 602 127 582 q 118 562 118 538 l 118 510 l 55 520 l 55 538 q 55 574 69 605 q 82 636 105 660 q 129 683 160 697 q 191 710 227 710 l 257 710 q 292 710 324 697 q 355 685 379 661 q 402 637 416 603 q 429 570 429 528 q 429 486 417 444 q 404 402 384 362 q 364 321 338 283 q 312 245 284 211 q 220 133 139 60 l 434 60 l 434 0 l 40 0 l 40 50 q 131 125 203 206 q 234 240 263 279 q 292 318 315 360 q 338 401 352 444 q 366 486 366 528 q 366 559 357 582 q 348 604 332 620 q 316 635 296 642 q 276 650 254 650 z"},"{":{"x_min":0,"x_max":380,"ha":380,"o":"m 163 153 q 163 178 155 199 q 146 220 132 234 q 117 249 96 257 q 75 265 51 265 l 40 265 l 40 319 l 56 319 q 80 320 99 328 q 119 336 133 351 q 147 366 155 386 q 163 406 163 431 l 163 612 q 163 649 176 681 q 189 712 212 735 q 235 758 267 771 q 298 784 335 784 l 340 784 l 340 730 l 335 730 q 311 730 290 722 q 270 714 255 699 q 240 685 231 664 q 223 643 223 618 l 223 437 q 223 390 202 352 q 182 313 147 292 q 182 270 202 232 q 223 194 223 147 l 223 -34 q 223 -59 231 -80 q 240 -101 255 -115 q 270 -130 290 -138 q 311 -146 335 -146 l 340 -146 l 340 -200 l 335 -200 q 298 -200 267 -187 q 235 -174 212 -151 q 189 -128 176 -97 q 163 -65 163 -28 z"},"9":{"x_min":0,"x_max":514,"ha":514,"o":"m 454 162 q 454 126 441 95 q 427 64 404 41 q 380 17 349 4 q 318 -10 282 -10 l 252 -10 q 216 -10 185 4 q 154 17 130 41 q 107 64 94 95 q 80 126 80 162 l 80 180 l 143 190 l 143 162 q 143 139 152 118 q 161 98 176 83 q 191 67 211 59 q 231 50 255 50 l 279 50 q 302 50 323 59 q 343 67 358 83 q 374 98 382 118 q 391 139 391 162 l 391 336 q 367 310 333 294 q 300 278 262 278 l 252 278 q 216 278 185 291 q 154 305 130 328 q 107 352 94 383 q 80 415 80 450 l 80 538 q 80 574 94 605 q 107 636 130 660 q 154 683 185 697 q 216 710 252 710 l 282 710 q 318 710 349 697 q 380 683 404 660 q 427 636 441 605 q 454 574 454 538 l 454 162 z m 391 538 q 391 562 382 582 q 374 602 358 617 q 343 632 323 641 q 302 650 279 650 l 255 650 q 231 650 211 641 q 191 632 176 617 q 161 602 152 582 q 143 562 143 538 l 143 450 q 143 427 152 406 q 161 386 176 371 q 191 355 211 347 q 231 338 255 338 l 279 338 q 302 338 323 347 q 343 355 358 371 q 374 386 382 406 q 391 427 391 450 z"}," ":{"x_min":0,"x_max":230,"ha":230,"o":""},"I":{"x_min":0,"x_max":223,"ha":223,"o":"m 80 0 l 80 700 l 143 700 l 143 0 z"},"H":{"x_min":0,"x_max":554,"ha":554,"o":"m 411 0 l 411 320 l 143 320 l 143 0 l 80 0 l 80 700 l 143 700 l 143 380 l 411 380 l 411 700 l 474 700 l 474 0 z"},"4":{"x_min":0,"x_max":504,"ha":504,"o":"m 374 121 l 374 0 l 311 0 l 311 121 l 30 121 l 30 151 l 341 700 l 374 700 l 374 181 l 434 181 l 434 121 z m 311 528 l 118 181 l 311 181 z"},"~":{"x_min":0,"x_max":481,"ha":481,"o":"m 322 295 q 335 295 346 301 q 356 306 364 316 q 371 325 375 338 q 379 351 379 366 l 431 366 q 431 340 424 317 q 417 294 404 277 q 390 260 369 250 q 349 240 321 240 q 302 240 286 246 q 270 251 256 259 q 243 267 230 276 q 218 286 207 293 q 195 301 183 307 q 172 312 159 312 q 133 312 117 292 q 102 272 102 241 l 50 241 q 50 268 57 291 q 63 313 77 331 q 91 348 112 357 q 133 367 160 367 q 188 367 210 356 q 232 345 250 331 q 269 317 286 306 q 303 295 322 295 z"},"D":{"x_min":0,"x_max":544,"ha":544,"o":"m 474 172 q 474 136 461 105 q 447 74 424 50 q 400 27 369 13 q 337 0 302 0 l 80 0 l 80 700 l 302 700 q 337 700 369 687 q 400 673 424 650 q 447 626 461 595 q 474 563 474 528 l 474 172 z m 411 528 q 411 551 402 572 q 394 592 378 607 q 363 623 343 631 q 322 640 299 640 l 143 640 l 143 60 l 299 60 q 322 60 343 69 q 363 78 378 93 q 394 108 402 128 q 411 148 411 172 z"},"^":{"x_min":0,"x_max":539,"ha":539,"o":"m 479 379 l 412 379 l 269 642 l 127 379 l 60 379 l 236 700 l 303 700 z"},"0":{"x_min":0,"x_max":514,"ha":514,"o":"m 444 162 q 444 126 430 95 q 417 64 394 41 q 370 17 339 4 q 308 -10 272 -10 l 242 -10 q 207 -10 175 4 q 144 17 120 41 q 97 64 83 95 q 70 126 70 162 l 70 538 q 70 574 83 605 q 97 636 120 660 q 144 683 175 697 q 207 710 242 710 l 272 710 q 308 710 339 697 q 370 683 394 660 q 417 636 430 605 q 444 574 444 538 l 444 162 z m 381 538 q 381 562 372 582 q 363 602 348 617 q 333 632 313 641 q 292 650 269 650 l 245 650 q 222 650 201 641 q 181 632 166 617 q 150 602 142 582 q 133 562 133 538 l 133 162 q 133 139 142 118 q 150 98 166 83 q 181 67 201 59 q 222 50 245 50 l 269 50 q 292 50 313 59 q 333 67 348 83 q 363 98 372 118 q 381 139 381 162 z"},"F":{"x_min":0,"x_max":494,"ha":494,"o":"m 143 640 l 143 380 l 411 380 l 411 320 l 143 320 l 143 0 l 80 0 l 80 700 l 474 700 l 474 640 z"},"`":{"x_min":0,"x_max":380,"ha":380,"o":"m 100 700 l 200 700 l 280 580 l 235 580 z"},"k":{"x_min":0,"x_max":454,"ha":454,"o":"m 356 0 l 152 250 l 356 500 l 434 500 l 225 250 l 434 0 z m 80 0 l 80 700 l 140 700 l 140 0 z"},"u":{"x_min":0,"x_max":454,"ha":454,"o":"m 374 0 l 341 51 q 320 23 290 7 q 259 -10 222 -10 l 207 -10 q 177 -10 150 2 q 123 13 103 33 q 83 53 72 80 q 60 107 60 137 l 60 500 l 120 500 l 120 134 q 120 116 127 100 q 134 84 146 72 q 157 61 173 54 q 189 47 207 47 l 247 47 q 265 47 281 54 q 297 61 309 72 q 320 84 327 100 q 334 116 334 134 l 334 500 l 394 500 l 394 0 z"},"]":{"x_min":0,"x_max":309,"ha":309,"o":"m 50 -146 l 169 -146 l 169 730 l 50 730 l 50 784 l 229 784 l 229 -200 l 50 -200 z"},"U":{"x_min":0,"x_max":534,"ha":534,"o":"m 464 162 q 464 126 450 95 q 437 64 414 41 q 390 17 359 4 q 328 -10 292 -10 l 242 -10 q 207 -10 175 4 q 144 17 120 41 q 97 64 83 95 q 70 126 70 162 l 70 700 l 133 700 l 133 162 q 133 139 142 118 q 150 98 166 83 q 181 67 201 59 q 222 50 245 50 l 289 50 q 312 50 333 59 q 353 67 368 83 q 383 98 392 118 q 401 139 401 162 l 401 700 l 464 700 l 464 162 z"},"o":{"x_min":0,"x_max":454,"ha":454,"o":"m 394 137 q 394 107 383 80 q 371 53 351 33 q 331 13 304 2 q 277 -10 247 -10 l 207 -10 q 177 -10 150 2 q 123 13 103 33 q 83 53 72 80 q 60 107 60 137 l 60 363 q 60 393 72 420 q 83 447 103 467 q 123 487 150 498 q 177 510 207 510 l 247 510 q 277 510 304 498 q 331 487 351 467 q 371 447 383 420 q 394 393 394 363 l 394 137 z m 334 366 q 334 384 327 400 q 320 416 309 428 q 297 439 281 446 q 265 453 247 453 l 207 453 q 189 453 173 446 q 157 439 146 428 q 134 416 127 400 q 120 384 120 366 l 120 134 q 120 116 127 100 q 134 84 146 72 q 157 61 173 54 q 189 47 207 47 l 247 47 q 265 47 281 54 q 297 61 309 72 q 320 84 327 100 q 334 116 334 134 z"},"N":{"x_min":0,"x_max":554,"ha":554,"o":"m 441 0 l 149 510 l 143 540 l 143 0 l 80 0 l 80 700 l 113 700 l 405 190 l 411 160 l 411 700 l 474 700 l 474 0 z"},"+":{"x_min":0,"x_max":580,"ha":580,"o":"m 40 382 l 258 382 l 258 600 l 321 600 l 321 382 l 540 382 l 540 319 l 321 319 l 321 100 l 258 100 l 258 319 l 40 319 z"},"G":{"x_min":0,"x_max":534,"ha":534,"o":"m 464 0 l 444 0 l 407 56 q 384 26 352 8 q 319 -10 279 -10 l 242 -10 q 207 -10 175 4 q 144 17 120 41 q 97 64 83 95 q 70 126 70 162 l 70 538 q 70 574 83 605 q 97 636 120 660 q 144 683 175 697 q 207 710 242 710 l 292 710 q 328 710 359 697 q 390 683 414 660 q 437 636 450 605 q 464 574 464 538 l 464 510 l 401 500 l 401 538 q 401 562 392 582 q 383 602 368 617 q 353 632 333 641 q 312 650 289 650 l 245 650 q 222 650 201 641 q 181 632 166 617 q 150 602 142 582 q 133 562 133 538 l 133 162 q 133 139 142 118 q 150 98 166 83 q 181 67 201 59 q 222 50 245 50 l 289 50 q 312 50 333 59 q 353 67 368 83 q 383 98 392 118 q 401 139 401 162 l 401 308 l 289 308 l 289 368 l 464 368 z"},"q":{"x_min":0,"x_max":454,"ha":454,"o":"m 334 -200 l 334 42 q 313 18 285 4 q 256 -10 222 -10 l 207 -10 q 177 -10 150 2 q 123 13 103 33 q 83 53 72 80 q 60 107 60 137 l 60 363 q 60 393 72 420 q 83 447 103 467 q 123 487 150 498 q 177 510 207 510 l 222 510 q 259 510 290 493 q 320 477 341 449 l 374 500 l 394 500 l 394 -200 z m 334 366 q 334 384 327 400 q 320 416 309 428 q 297 439 281 446 q 265 453 247 453 l 207 453 q 189 453 173 446 q 157 439 146 428 q 134 416 127 400 q 120 384 120 366 l 120 134 q 120 116 127 100 q 134 84 146 72 q 157 61 173 54 q 189 47 207 47 l 247 47 q 265 47 281 54 q 297 61 309 72 q 320 84 327 100 q 334 116 334 134 z"},"d":{"x_min":0,"x_max":454,"ha":454,"o":"m 374 0 l 341 51 q 320 23 290 7 q 259 -10 222 -10 l 207 -10 q 177 -10 150 2 q 123 13 103 33 q 83 53 72 80 q 60 107 60 137 l 60 363 q 60 393 72 420 q 83 447 103 467 q 123 487 150 498 q 177 510 207 510 l 222 510 q 256 510 285 496 q 313 482 334 458 l 334 700 l 394 700 l 394 0 z m 334 366 q 334 384 327 400 q 320 416 309 428 q 297 439 281 446 q 265 453 247 453 l 207 453 q 189 453 173 446 q 157 439 146 428 q 134 416 127 400 q 120 384 120 366 l 120 134 q 120 116 127 100 q 134 84 146 72 q 157 61 173 54 q 189 47 207 47 l 247 47 q 265 47 281 54 q 297 61 309 72 q 320 84 327 100 q 334 116 334 134 z"},"1":{"x_min":0,"x_max":517,"ha":517,"o":"m 80 0 l 80 60 l 247 60 l 247 640 l 80 570 l 80 630 l 247 700 l 310 700 l 310 60 l 477 60 l 477 0 z"},"5":{"x_min":0,"x_max":514,"ha":514,"o":"m 444 162 q 444 126 430 95 q 417 64 394 41 q 370 17 339 4 q 308 -10 272 -10 l 242 -10 q 207 -10 175 4 q 144 17 120 41 q 97 64 83 95 q 70 126 70 162 l 70 173 l 133 173 l 133 162 q 133 139 142 118 q 150 98 166 83 q 181 67 201 59 q 222 50 245 50 l 269 50 q 292 50 313 59 q 333 67 348 83 q 363 98 372 118 q 381 139 381 162 l 381 298 q 381 321 372 342 q 363 362 348 377 q 333 393 313 401 q 292 410 269 410 l 245 410 q 222 410 201 401 q 181 393 166 377 q 150 362 142 342 q 133 321 133 298 l 70 298 l 110 700 l 409 700 l 409 640 l 169 640 l 146 425 q 168 446 198 458 q 228 470 262 470 l 272 470 q 308 470 339 457 q 370 443 394 420 q 417 396 430 365 q 444 333 444 298 l 444 162 z"}}}
